<svg width="60" height="50" viewBox="0 0 60 50" fill="none" xmlns="http://www.w3.org/2000/svg">
<path d="M17.2233 32.626H27.413C28.2923 32.626 29.005 31.9134 29.005 31.0345C29.005 30.1552 28.2921 29.4421 27.413 29.4421H21.0663L27.0219 23.4868C28.3005 22.2082 29.005 20.5081 29.005 18.6996C29.005 16.8913 28.3005 15.1912 27.0219 13.9126C25.7434 12.6337 24.0432 11.9297 22.2349 11.9297C20.4263 11.9297 18.7263 12.6339 17.4479 13.9126C16.826 14.534 16.826 15.5422 17.4479 16.1641C18.0697 16.7855 19.0775 16.7855 19.6994 16.1636C20.3764 15.4864 21.2772 15.1136 22.2349 15.1136C23.1927 15.1136 24.0934 15.4864 24.7706 16.1641C25.4481 16.8409 25.8209 17.7415 25.8209 18.6996C25.8209 19.6574 25.4481 20.5581 24.7706 21.2353L16.0972 29.9089C15.6418 30.3639 15.5058 31.0488 15.7519 31.6439C15.9987 32.2385 16.5792 32.626 17.2233 32.626Z" fill="#111111"/>
<path d="M42.7253 29.4428H41.3724V26.245C41.3724 25.3662 40.6598 24.6531 39.7805 24.6531C38.9012 24.6531 38.1888 25.3662 38.1888 26.245V29.4428H34.3764L41.2328 14.1741C41.5929 13.3723 41.2346 12.4298 40.4325 12.0698C39.6304 11.7097 38.6882 12.0677 38.3282 12.8696L30.464 30.3827C30.2428 30.8751 30.2862 31.4464 30.5795 31.9C30.8731 32.3531 31.3759 32.6265 31.9161 32.6265H38.1885V35.8247C38.1885 36.7036 38.901 37.4169 39.7803 37.4169C40.6598 37.4169 41.3722 36.7036 41.3722 35.8247V32.6265H42.7251C43.6044 32.6265 44.3173 31.9138 44.3173 31.035C44.3175 30.1557 43.6044 29.4428 42.7253 29.4428Z" fill="#333333"/>
<path d="M59.7359 23.8753C59.4516 23.3828 58.9258 23.079 58.3573 23.079H54.5942C54.2151 17.0885 51.7027 11.5083 47.42 7.22601C42.7601 2.56616 36.5646 0 29.9748 0C29.0955 0 28.3828 0.712654 28.3828 1.59173C28.3828 2.47125 29.0957 3.18367 29.9748 3.18367C41.2876 3.18367 50.586 11.9715 51.4033 23.0793H47.7515C47.1825 23.0793 46.6572 23.383 46.3729 23.8755C46.0882 24.3681 46.0882 24.975 46.3729 25.4676L51.6755 34.6525C51.9602 35.1452 52.4856 35.4483 53.0541 35.4483C53.623 35.4483 54.1486 35.1452 54.4328 34.6525L59.7356 25.4676C60.0199 24.9748 60.0199 24.3679 59.7359 23.8753ZM53.0541 30.6719L50.5088 26.263H55.6L53.0541 30.6719Z" fill="#111111"/>
<path d="M25.008 3.18437C25.4266 3.18437 25.8373 3.01366 26.1336 2.71739C26.4296 2.42134 26.6001 2.01062 26.6001 1.5922C26.6001 1.17241 26.4299 0.762617 26.1336 0.466565C25.8375 0.169379 25.4266 0 25.008 0C24.5884 0 24.1786 0.169379 23.8819 0.466565C23.5858 0.762617 23.416 1.17332 23.416 1.5922C23.416 2.01062 23.5858 2.42134 23.8819 2.71739C24.1786 3.01366 24.5884 3.18437 25.008 3.18437Z" fill="#111111"/>
<path d="M20.2309 3.18437C20.6493 3.18437 21.0602 3.01366 21.3563 2.71739C21.6534 2.42134 21.8228 2.01062 21.8228 1.5922C21.8228 1.17241 21.6534 0.762617 21.3563 0.466565C21.0602 0.169379 20.6493 0 20.2309 0C19.8122 0 19.4015 0.169379 19.1052 0.466565C18.808 0.762617 18.6387 1.17241 18.6387 1.5922C18.6387 2.01062 18.808 2.42134 19.1052 2.71739C19.4013 3.01366 19.8122 3.18437 20.2309 3.18437Z" fill="#111111"/>
<path d="M29.9745 46.1585C24.2347 46.1585 18.839 43.9233 14.7803 39.8651C11.0994 36.1842 8.91854 31.4027 8.54485 26.2628H12.1976C12.198 26.2628 12.1985 26.2628 12.199 26.2628C13.0783 26.2628 13.7909 25.5502 13.7909 24.6709C13.7909 24.3558 13.6992 24.0616 13.5409 23.8145L8.2731 14.6903C7.98908 14.1978 7.46326 13.8945 6.89455 13.8945C6.32583 13.8945 5.80024 14.1978 5.516 14.6903L0.213184 23.8751C-0.0710614 24.3678 -0.0710614 24.9747 0.213184 25.4673C0.49743 25.96 1.02302 26.2631 1.59173 26.2631H5.35458C5.73417 32.2542 8.2463 37.8338 12.5288 42.1163C17.1887 46.7766 23.3842 49.3426 29.9743 49.3426C30.8536 49.3426 31.566 48.6299 31.566 47.7504C31.5662 46.8716 30.8538 46.1585 29.9745 46.1585ZM6.89477 18.6702L9.44027 23.0789H4.34928L6.89477 18.6702Z" fill="#111111"/>
<path d="M34.9416 46.1602C34.5229 46.1602 34.1122 46.3309 33.8159 46.6265C33.5199 46.9228 33.3496 47.3335 33.3496 47.7521C33.3496 48.1717 33.5199 48.5817 33.8159 48.878C34.112 49.1747 34.5229 49.3443 34.9416 49.3443C35.3611 49.3443 35.7709 49.1747 36.0679 48.878C36.3639 48.5817 36.5333 48.1712 36.5333 47.7521C36.5333 47.3335 36.3639 46.9228 36.0679 46.6265C35.7709 46.3309 35.3611 46.1602 34.9416 46.1602Z" fill="#111111"/>
<path d="M39.7169 46.1602C39.2974 46.1602 38.8874 46.3309 38.5913 46.6265C38.2944 46.9228 38.125 47.3335 38.125 47.7521C38.125 48.1712 38.2946 48.5817 38.5913 48.878C38.8874 49.1747 39.2974 49.3443 39.7169 49.3443C40.1356 49.3443 40.5465 49.1747 40.8424 48.878C41.1384 48.5817 41.3091 48.1712 41.3091 47.7521C41.3091 47.3335 41.1386 46.9228 40.8424 46.6265C40.5465 46.3309 40.1354 46.1602 39.7169 46.1602Z" fill="#111111"/>
</svg>
