<svg width="84" height="51" viewBox="0 0 84 51" fill="none" xmlns="http://www.w3.org/2000/svg">
<path d="M3.038 20.3633H2.22852C0.997617 20.3633 0 21.3612 0 22.5918C0 23.8224 0.997617 24.8203 2.22852 24.8203H3.038C4.26828 24.8203 5.26657 23.8224 5.26657 22.5918C5.26657 21.3612 4.26859 20.3633 3.038 20.3633Z" fill="#111111"/>
<path d="M21.5707 24.8203C22.8013 24.8203 23.7995 23.8224 23.7995 22.5918C23.7995 21.3612 22.8013 20.3633 21.5707 20.3633H9.20313C7.97286 20.3633 6.97461 21.3612 6.97461 22.5918C6.97461 23.8224 7.97286 24.8203 9.20313 24.8203H21.5707Z" fill="#111111"/>
<path d="M10.5781 16.5469H11.3784C12.6096 16.5469 13.6069 15.549 13.6069 14.3187C13.6069 13.0875 12.6096 12.0898 11.3784 12.0898H10.5781C9.34723 12.0898 8.34961 13.0878 8.34961 14.3187C8.34961 15.549 9.34723 16.5469 10.5781 16.5469Z" fill="#111111"/>
<path d="M24.0084 12.0898H17.5443C16.3131 12.0898 15.3154 13.0878 15.3154 14.3187C15.3154 15.5493 16.3131 16.5469 17.5443 16.5469H24.0084C25.2393 16.5469 26.2369 15.549 26.2369 14.3187C26.2369 13.0875 25.2393 12.0898 24.0084 12.0898Z" fill="#111111"/>
<path d="M11.3883 28.6367H10.5781C9.34723 28.6367 8.34961 29.6347 8.34961 30.8656C8.34961 32.0962 9.34723 33.0938 10.5781 33.0938H11.3883C12.6192 33.0938 13.6168 32.0958 13.6168 30.8656C13.6168 29.6347 12.6192 28.6367 11.3883 28.6367Z" fill="#111111"/>
<path d="M24.0083 28.6367H17.5538C16.3229 28.6367 15.3252 29.6347 15.3252 30.8656C15.3252 32.0962 16.3229 33.0938 17.5538 33.0938H24.0083C25.2392 33.0938 26.2368 32.0958 26.2368 30.8656C26.2368 29.6347 25.2392 28.6367 24.0083 28.6367Z" fill="#111111"/>
<path d="M83.3374 24.5136L72.6413 12.8147C72.2195 12.3526 71.622 12.0895 70.9962 12.0895H58.3503V2.61916C58.3503 1.38825 57.3526 0.390625 56.1217 0.390625H15.5088C14.2779 0.390625 13.2803 1.38857 13.2803 2.61916C13.2803 3.84975 14.2779 4.84769 15.5088 4.84769H53.8929V40.3352H34.6725C33.7099 37.1014 30.7119 34.7362 27.1702 34.7362C23.6284 34.7362 20.6298 37.1014 19.6681 40.3352H15.5088C14.2779 40.3352 13.2803 41.3328 13.2803 42.5634C13.2803 43.7946 14.2779 44.792 15.5088 44.792H19.6681C20.6298 48.0251 23.6284 50.3906 27.1702 50.3906C30.7119 50.3906 33.7099 48.0251 34.6725 44.792H56.1214H61.4042C62.3668 48.0251 65.3655 50.3906 68.9066 50.3906C72.449 50.3906 75.4469 48.0251 76.4093 44.792H81.6924C82.9233 44.792 83.9209 43.7943 83.9209 42.5634V26.0172C83.9215 25.4613 83.7127 24.9245 83.3374 24.5136ZM27.1702 45.9342C25.3119 45.9342 23.8 44.4223 23.8 42.5637C23.8 40.7054 25.3119 39.1933 27.1702 39.1933C29.0284 39.1933 30.5403 40.7058 30.5403 42.5637C30.5406 44.4223 29.0284 45.9342 27.1702 45.9342ZM68.9069 45.9342C67.0486 45.9342 65.5368 44.4223 65.5368 42.5637C65.5368 40.7054 67.0489 39.1933 68.9069 39.1933C70.7658 39.1933 72.2777 40.7058 72.2777 42.5637C72.278 44.4223 70.7658 45.9342 68.9069 45.9342ZM76.4099 40.3355C75.4476 37.1017 72.4496 34.7365 68.9072 34.7365C65.3658 34.7365 62.3675 37.1017 61.4048 40.3355H58.3506V16.5469H70.0148L76.6359 23.789H64.0125C62.7822 23.789 61.7846 24.7869 61.7846 26.0175C61.7846 27.2487 62.7822 28.2461 64.0125 28.2461H79.4645V40.3352H76.4099V40.3355Z" fill="#111111"/>
</svg>
